<svg width="255" height="93" viewBox="0 0 255 93" fill="none" xmlns="http://www.w3.org/2000/svg">
<path d="M84.851 88.6559C84.0556 88.6559 83.3533 88.455 82.7443 88.0531C82.1353 87.6471 81.6589 87.0753 81.315 86.3379C80.9711 85.5963 80.7992 84.7201 80.7992 83.7092C80.7992 82.7066 80.9711 81.8365 81.315 81.0991C81.6589 80.3616 82.1374 79.792 82.7505 79.3901C83.3637 78.9882 84.0721 78.7873 84.8759 78.7873C85.4973 78.7873 85.9883 78.8909 86.3487 79.098C86.7133 79.301 86.9909 79.533 87.1815 79.794C87.3762 80.0509 87.5274 80.2622 87.6351 80.4279H87.7594V75.7298H89.226V88.457H87.8091V86.9904H87.6351C87.5274 87.1644 87.3741 87.384 87.1752 87.6491C86.9764 87.9102 86.6926 88.1442 86.3239 88.3514C85.9551 88.5544 85.4642 88.6559 84.851 88.6559ZM85.0499 87.3384C85.6382 87.3384 86.1354 87.1851 86.5414 86.8786C86.9474 86.5678 87.256 86.139 87.4673 85.5922C87.6786 85.0411 87.7843 84.4052 87.7843 83.6843C87.7843 82.9717 87.6807 82.3482 87.4735 81.8137C87.2664 81.2752 86.9598 80.8567 86.5538 80.5584C86.1478 80.256 85.6465 80.1048 85.0499 80.1048C84.4284 80.1048 83.9106 80.2643 83.4963 80.5833C83.0861 80.8981 82.7775 81.3269 82.5703 81.8697C82.3673 82.4083 82.2658 83.0131 82.2658 83.6843C82.2658 84.3638 82.3694 84.9811 82.5765 85.5362C82.7878 86.0872 83.0985 86.5264 83.5087 86.8537C83.923 87.1768 84.4367 87.3384 85.0499 87.3384ZM92.1158 88.457V78.9116H93.5327V80.3533H93.6321C93.8061 79.881 94.121 79.4978 94.5767 79.2037C95.0324 78.9095 95.5462 78.7624 96.1179 78.7624C96.2256 78.7624 96.3603 78.7645 96.5218 78.7686C96.6834 78.7728 96.8056 78.779 96.8885 78.7873V80.2788C96.8388 80.2663 96.7248 80.2477 96.5467 80.2228C96.3727 80.1938 96.1883 80.1793 95.9936 80.1793C95.5296 80.1793 95.1153 80.2767 94.7507 80.4714C94.3903 80.662 94.1044 80.9271 93.8931 81.2669C93.686 81.6025 93.5824 81.9857 93.5824 82.4165V88.457H92.1158ZM101.436 88.6808C100.831 88.6808 100.282 88.5668 99.7891 88.339C99.2961 88.1069 98.9046 87.7734 98.6146 87.3384C98.3246 86.8993 98.1796 86.369 98.1796 85.7475C98.1796 85.2006 98.2873 84.7573 98.5027 84.4176C98.7181 84.0737 99.0061 83.8045 99.3665 83.6097C99.727 83.415 100.125 83.27 100.56 83.1747C100.999 83.0753 101.44 82.9966 101.883 82.9386C102.463 82.864 102.934 82.8081 103.294 82.7708C103.659 82.7293 103.924 82.661 104.09 82.5657C104.259 82.4704 104.344 82.3047 104.344 82.0685V82.0188C104.344 81.4057 104.177 80.9292 103.841 80.5895C103.51 80.2498 103.006 80.0799 102.331 80.0799C101.631 80.0799 101.082 80.2332 100.684 80.5398C100.286 80.8464 100.007 81.1737 99.845 81.5217L98.453 81.0245C98.7016 80.4445 99.033 79.9929 99.4473 79.6697C99.8658 79.3424 100.321 79.1146 100.814 78.9862C101.312 78.8536 101.801 78.7873 102.281 78.7873C102.588 78.7873 102.94 78.8246 103.338 78.8991C103.739 78.9696 104.127 79.1167 104.5 79.3404C104.877 79.5641 105.189 79.9018 105.438 80.3533C105.687 80.8049 105.811 81.4098 105.811 82.168V88.457H104.344V87.1644H104.27C104.17 87.3716 104.005 87.5932 103.773 87.8294C103.541 88.0655 103.232 88.2665 102.847 88.4322C102.461 88.5979 101.991 88.6808 101.436 88.6808ZM101.66 87.3633C102.24 87.3633 102.729 87.2493 103.126 87.0215C103.528 86.7936 103.831 86.4995 104.034 86.139C104.241 85.7786 104.344 85.3995 104.344 85.0018V83.6594C104.282 83.734 104.145 83.8024 103.934 83.8645C103.727 83.9225 103.487 83.9743 103.213 84.0199C102.944 84.0613 102.681 84.0986 102.424 84.1317C102.171 84.1607 101.966 84.1856 101.809 84.2063C101.428 84.256 101.071 84.3368 100.74 84.4487C100.413 84.5564 100.147 84.7201 99.9445 84.9396C99.7456 85.1551 99.6462 85.4492 99.6462 85.8221C99.6462 86.3317 99.8347 86.717 100.212 86.978C100.593 87.2348 101.076 87.3633 101.66 87.3633ZM108.214 88.457V87.3384L113.633 80.3782V80.2788H108.388V78.9116H115.523V80.0799L110.253 86.9904V87.0898H115.697V88.457H108.214ZM110.576 75.0835L111.869 76.8235L113.161 75.0835H114.553V75.1829L112.54 77.7681H111.197L109.184 75.1829V75.0835H110.576ZM121.56 88.6559C120.698 88.6559 119.942 88.4508 119.292 88.0407C118.645 87.6305 118.14 87.0567 117.775 86.3192C117.415 85.5818 117.235 84.7201 117.235 83.734C117.235 82.7397 117.415 81.8717 117.775 81.1301C118.14 80.3886 118.645 79.8127 119.292 79.4025C119.942 78.9924 120.698 78.7873 121.56 78.7873C122.422 78.7873 123.176 78.9924 123.822 79.4025C124.473 79.8127 124.978 80.3886 125.338 81.1301C125.703 81.8717 125.885 82.7397 125.885 83.734C125.885 84.7201 125.703 85.5818 125.338 86.3192C124.978 87.0567 124.473 87.6305 123.822 88.0407C123.176 88.4508 122.422 88.6559 121.56 88.6559ZM121.56 87.3384C122.215 87.3384 122.753 87.1706 123.176 86.835C123.598 86.4995 123.911 86.0582 124.114 85.5114C124.317 84.9645 124.419 84.372 124.419 83.734C124.419 83.096 124.317 82.5015 124.114 81.9505C123.911 81.3994 123.598 80.9541 123.176 80.6143C122.753 80.2746 122.215 80.1048 121.56 80.1048C120.905 80.1048 120.367 80.2746 119.944 80.6143C119.522 80.9541 119.209 81.3994 119.006 81.9505C118.803 82.5015 118.701 83.096 118.701 83.734C118.701 84.372 118.803 84.9645 119.006 85.5114C119.209 86.0582 119.522 86.4995 119.944 86.835C120.367 87.1706 120.905 87.3384 121.56 87.3384ZM128.323 88.457V75.7298H129.79V80.4279H129.914C130.022 80.2622 130.171 80.0509 130.361 79.794C130.556 79.533 130.834 79.301 131.194 79.098C131.559 78.8909 132.052 78.7873 132.673 78.7873C133.477 78.7873 134.185 78.9882 134.798 79.3901C135.412 79.792 135.89 80.3616 136.234 81.0991C136.578 81.8365 136.75 82.7066 136.75 83.7092C136.75 84.7201 136.578 85.5963 136.234 86.3379C135.89 87.0753 135.414 87.6471 134.805 88.0531C134.196 88.455 133.493 88.6559 132.698 88.6559C132.085 88.6559 131.594 88.5544 131.225 88.3514C130.856 88.1442 130.573 87.9102 130.374 87.6491C130.175 87.384 130.022 87.1644 129.914 86.9904H129.74V88.457H128.323ZM129.765 83.6843C129.765 84.4052 129.87 85.0411 130.082 85.5922C130.293 86.139 130.602 86.5678 131.008 86.8786C131.414 87.1851 131.911 87.3384 132.499 87.3384C133.112 87.3384 133.624 87.1768 134.034 86.8537C134.448 86.5264 134.759 86.0872 134.966 85.5362C135.178 84.9811 135.283 84.3638 135.283 83.6843C135.283 83.0131 135.18 82.4083 134.972 81.8697C134.769 81.3269 134.461 80.8981 134.046 80.5833C133.636 80.2643 133.121 80.1048 132.499 80.1048C131.902 80.1048 131.401 80.256 130.995 80.5584C130.589 80.8567 130.283 81.2752 130.075 81.8137C129.868 82.3482 129.765 82.9717 129.765 83.6843ZM140.46 82.7148V88.457H138.993V78.9116H140.41V80.4031H140.534C140.758 79.9183 141.098 79.5289 141.554 79.2347C142.009 78.9364 142.598 78.7873 143.318 78.7873C143.965 78.7873 144.53 78.9199 145.015 79.185C145.5 79.446 145.877 79.8438 146.146 80.3782C146.415 80.9085 146.55 81.5797 146.55 82.3917V88.457H145.083V82.4911C145.083 81.7412 144.889 81.1571 144.499 80.7386C144.11 80.3161 143.575 80.1048 142.896 80.1048C142.428 80.1048 142.009 80.2063 141.641 80.4093C141.276 80.6123 140.988 80.9085 140.777 81.2979C140.565 81.6874 140.46 82.1597 140.46 82.7148ZM152.039 88.6808C151.434 88.6808 150.885 88.5668 150.392 88.339C149.899 88.1069 149.508 87.7734 149.218 87.3384C148.928 86.8993 148.783 86.369 148.783 85.7475C148.783 85.2006 148.89 84.7573 149.106 84.4176C149.321 84.0737 149.609 83.8045 149.97 83.6097C150.33 83.415 150.728 83.27 151.163 83.1747C151.602 83.0753 152.043 82.9966 152.486 82.9386C153.066 82.864 153.537 82.8081 153.897 82.7708C154.262 82.7293 154.527 82.661 154.693 82.5657C154.862 82.4704 154.947 82.3047 154.947 82.0685V82.0188C154.947 81.4057 154.78 80.9292 154.444 80.5895C154.113 80.2498 153.609 80.0799 152.934 80.0799C152.234 80.0799 151.685 80.2332 151.287 80.5398C150.889 80.8464 150.61 81.1737 150.448 81.5217L149.056 81.0245C149.305 80.4445 149.636 79.9929 150.05 79.6697C150.469 79.3424 150.925 79.1146 151.418 78.9862C151.915 78.8536 152.404 78.7873 152.884 78.7873C153.191 78.7873 153.543 78.8246 153.941 78.8991C154.342 78.9696 154.73 79.1167 155.103 79.3404C155.48 79.5641 155.793 79.9018 156.041 80.3533C156.29 80.8049 156.414 81.4098 156.414 82.168V88.457H154.947V87.1644H154.873C154.773 87.3716 154.608 87.5932 154.376 87.8294C154.144 88.0655 153.835 88.2665 153.45 88.4322C153.064 88.5979 152.594 88.6808 152.039 88.6808ZM152.263 87.3633C152.843 87.3633 153.332 87.2493 153.729 87.0215C154.131 86.7936 154.434 86.4995 154.637 86.139C154.844 85.7786 154.947 85.3995 154.947 85.0018V83.6594C154.885 83.734 154.748 83.8024 154.537 83.8645C154.33 83.9225 154.09 83.9743 153.816 84.0199C153.547 84.0613 153.284 84.0986 153.027 84.1317C152.774 84.1607 152.569 84.1856 152.412 84.2063C152.031 84.256 151.674 84.3368 151.343 84.4487C151.016 84.5564 150.751 84.7201 150.547 84.9396C150.349 85.1551 150.249 85.4492 150.249 85.8221C150.249 86.3317 150.438 86.717 150.815 86.978C151.196 87.2348 151.679 87.3633 152.263 87.3633ZM152.312 77.619L153.829 74.7354H155.544L153.605 77.619H152.312ZM170.774 81.0494L169.457 81.4222C169.374 81.2027 169.252 80.9893 169.09 80.7821C168.933 80.5708 168.717 80.3968 168.444 80.2601C168.17 80.1234 167.82 80.055 167.393 80.055C166.809 80.055 166.322 80.1897 165.933 80.459C165.548 80.7241 165.355 81.0618 165.355 81.4719C165.355 81.8365 165.488 82.1245 165.753 82.3358C166.018 82.5471 166.432 82.7231 166.996 82.864L168.413 83.212C169.266 83.4192 169.902 83.7361 170.32 84.1628C170.739 84.5854 170.948 85.1302 170.948 85.7972C170.948 86.3441 170.791 86.833 170.476 87.2638C170.165 87.6947 169.73 88.0344 169.171 88.283C168.611 88.5316 167.961 88.6559 167.219 88.6559C166.246 88.6559 165.44 88.4446 164.802 88.022C164.164 87.5994 163.76 86.9821 163.59 86.1701L164.982 85.8221C165.115 86.3358 165.365 86.7211 165.734 86.978C166.107 87.2348 166.594 87.3633 167.195 87.3633C167.878 87.3633 168.421 87.2183 168.823 86.9283C169.229 86.6341 169.432 86.282 169.432 85.8718C169.432 85.5404 169.316 85.2628 169.084 85.0391C168.852 84.8112 168.495 84.6413 168.015 84.5295L166.424 84.1566C165.55 83.9495 164.908 83.6284 164.497 83.1934C164.091 82.7542 163.888 82.2053 163.888 81.5465C163.888 81.0079 164.04 80.5315 164.342 80.1172C164.649 79.7029 165.065 79.3777 165.591 79.1415C166.122 78.9054 166.722 78.7873 167.393 78.7873C168.338 78.7873 169.08 78.9944 169.618 79.4087C170.161 79.823 170.546 80.3699 170.774 81.0494ZM173.156 92.0366V78.9116H174.573V80.4279H174.747C174.854 80.2622 175.004 80.0509 175.194 79.794C175.389 79.533 175.666 79.301 176.027 79.098C176.391 78.8909 176.884 78.7873 177.506 78.7873C178.31 78.7873 179.018 78.9882 179.631 79.3901C180.244 79.792 180.723 80.3616 181.067 81.0991C181.411 81.8365 181.583 82.7066 181.583 83.7092C181.583 84.7201 181.411 85.5963 181.067 86.3379C180.723 87.0753 180.247 87.6471 179.638 88.0531C179.028 88.455 178.326 88.6559 177.531 88.6559C176.918 88.6559 176.427 88.5544 176.058 88.3514C175.689 88.1442 175.405 87.9102 175.207 87.6491C175.008 87.384 174.854 87.1644 174.747 86.9904H174.622V92.0366H173.156ZM174.598 83.6843C174.598 84.4052 174.703 85.0411 174.915 85.5922C175.126 86.139 175.434 86.5678 175.84 86.8786C176.246 87.1851 176.744 87.3384 177.332 87.3384C177.945 87.3384 178.457 87.1768 178.867 86.8537C179.281 86.5264 179.592 86.0872 179.799 85.5362C180.01 84.9811 180.116 84.3638 180.116 83.6843C180.116 83.0131 180.012 82.4083 179.805 81.8697C179.602 81.3269 179.294 80.8981 178.879 80.5833C178.469 80.2643 177.953 80.1048 177.332 80.1048C176.735 80.1048 176.234 80.256 175.828 80.5584C175.422 80.8567 175.115 81.2752 174.908 81.8137C174.701 82.3482 174.598 82.9717 174.598 83.6843ZM187.698 88.6559C186.836 88.6559 186.08 88.4508 185.429 88.0407C184.783 87.6305 184.278 87.0567 183.913 86.3192C183.553 85.5818 183.372 84.7201 183.372 83.734C183.372 82.7397 183.553 81.8717 183.913 81.1301C184.278 80.3886 184.783 79.8127 185.429 79.4025C186.08 78.9924 186.836 78.7873 187.698 78.7873C188.559 78.7873 189.313 78.9924 189.96 79.4025C190.61 79.8127 191.116 80.3886 191.476 81.1301C191.841 81.8717 192.023 82.7397 192.023 83.734C192.023 84.7201 191.841 85.5818 191.476 86.3192C191.116 87.0567 190.61 87.6305 189.96 88.0407C189.313 88.4508 188.559 88.6559 187.698 88.6559ZM187.698 87.3384C188.352 87.3384 188.891 87.1706 189.313 86.835C189.736 86.4995 190.049 86.0582 190.252 85.5114C190.455 84.9645 190.556 84.372 190.556 83.734C190.556 83.096 190.455 82.5015 190.252 81.9505C190.049 81.3994 189.736 80.9541 189.313 80.6143C188.891 80.2746 188.352 80.1048 187.698 80.1048C187.043 80.1048 186.505 80.2746 186.082 80.6143C185.659 80.9541 185.347 81.3994 185.144 81.9505C184.941 82.5015 184.839 83.096 184.839 83.734C184.839 84.372 184.941 84.9645 185.144 85.5114C185.347 86.0582 185.659 86.4995 186.082 86.835C186.505 87.1706 187.043 87.3384 187.698 87.3384ZM195.728 75.7298V88.457H194.262V75.7298H195.728ZM202.292 88.6559C201.431 88.6559 200.675 88.4508 200.024 88.0407C199.378 87.6305 198.872 87.0567 198.508 86.3192C198.147 85.5818 197.967 84.7201 197.967 83.734C197.967 82.7397 198.147 81.8717 198.508 81.1301C198.872 80.3886 199.378 79.8127 200.024 79.4025C200.675 78.9924 201.431 78.7873 202.292 78.7873C203.154 78.7873 203.908 78.9924 204.555 79.4025C205.205 79.8127 205.71 80.3886 206.071 81.1301C206.435 81.8717 206.618 82.7397 206.618 83.734C206.618 84.7201 206.435 85.5818 206.071 86.3192C205.71 87.0567 205.205 87.6305 204.555 88.0407C203.908 88.4508 203.154 88.6559 202.292 88.6559ZM202.292 87.3384C202.947 87.3384 203.486 87.1706 203.908 86.835C204.331 86.4995 204.644 86.0582 204.847 85.5114C205.05 84.9645 205.151 84.372 205.151 83.734C205.151 83.096 205.05 82.5015 204.847 81.9505C204.644 81.3994 204.331 80.9541 203.908 80.6143C203.486 80.2746 202.947 80.1048 202.292 80.1048C201.638 80.1048 201.099 80.2746 200.677 80.6143C200.254 80.9541 199.941 81.3994 199.738 81.9505C199.535 82.5015 199.434 83.096 199.434 83.734C199.434 84.372 199.535 84.9645 199.738 85.5114C199.941 86.0582 200.254 86.4995 200.677 86.835C201.099 87.1706 201.638 87.3384 202.292 87.3384ZM212.734 88.6559C211.839 88.6559 211.069 88.4446 210.423 88.022C209.776 87.5994 209.279 87.0173 208.931 86.2757C208.583 85.5341 208.409 84.6869 208.409 83.734C208.409 82.7646 208.587 81.909 208.943 81.1674C209.304 80.4217 209.805 79.8396 210.447 79.4212C211.094 78.9986 211.848 78.7873 212.709 78.7873C213.381 78.7873 213.986 78.9116 214.524 79.1602C215.063 79.4087 215.504 79.7567 215.848 80.2042C216.192 80.6516 216.405 81.1737 216.488 81.7702H215.021C214.909 81.3352 214.661 80.9499 214.276 80.6143C213.894 80.2746 213.381 80.1048 212.734 80.1048C212.163 80.1048 211.661 80.2539 211.23 80.5522C210.804 80.8464 210.47 81.2627 210.23 81.8013C209.994 82.3358 209.876 82.9634 209.876 83.6843C209.876 84.4218 209.992 85.0639 210.224 85.6108C210.46 86.1577 210.791 86.5823 211.218 86.8848C211.649 87.1872 212.154 87.3384 212.734 87.3384C213.115 87.3384 213.461 87.2721 213.772 87.1396C214.083 87.007 214.346 86.8164 214.561 86.5678C214.777 86.3192 214.93 86.021 215.021 85.6729H216.488C216.405 86.2364 216.2 86.7439 215.873 87.1955C215.549 87.6429 215.121 87.9992 214.586 88.2644C214.056 88.5254 213.439 88.6559 212.734 88.6559ZM211.392 75.0835L212.685 76.8235L213.977 75.0835H215.369V75.1829L213.356 77.7681H212.013L210 75.1829V75.0835H211.392ZM220.098 82.7148V88.457H218.632V78.9116H220.049V80.4031H220.173C220.397 79.9183 220.737 79.5289 221.192 79.2347C221.648 78.9364 222.236 78.7873 222.957 78.7873C223.603 78.7873 224.169 78.9199 224.654 79.185C225.138 79.446 225.515 79.8438 225.785 80.3782C226.054 80.9085 226.189 81.5797 226.189 82.3917V88.457H224.722V82.4911C224.722 81.7412 224.527 81.1571 224.138 80.7386C223.748 80.3161 223.214 80.1048 222.535 80.1048C222.066 80.1048 221.648 80.2063 221.279 80.4093C220.915 80.6123 220.627 80.9085 220.415 81.2979C220.204 81.6874 220.098 82.1597 220.098 82.7148ZM232.747 88.6559C231.885 88.6559 231.129 88.4508 230.478 88.0407C229.832 87.6305 229.326 87.0567 228.962 86.3192C228.601 85.5818 228.421 84.7201 228.421 83.734C228.421 82.7397 228.601 81.8717 228.962 81.1301C229.326 80.3886 229.832 79.8127 230.478 79.4025C231.129 78.9924 231.885 78.7873 232.747 78.7873C233.608 78.7873 234.362 78.9924 235.009 79.4025C235.659 79.8127 236.165 80.3886 236.525 81.1301C236.89 81.8717 237.072 82.7397 237.072 83.734C237.072 84.7201 236.89 85.5818 236.525 86.3192C236.165 87.0567 235.659 87.6305 235.009 88.0407C234.362 88.4508 233.608 88.6559 232.747 88.6559ZM232.747 87.3384C233.401 87.3384 233.94 87.1706 234.362 86.835C234.785 86.4995 235.098 86.0582 235.301 85.5114C235.504 84.9645 235.605 84.372 235.605 83.734C235.605 83.096 235.504 82.5015 235.301 81.9505C235.098 81.3994 234.785 80.9541 234.362 80.6143C233.94 80.2746 233.401 80.1048 232.747 80.1048C232.092 80.1048 231.553 80.2746 231.131 80.6143C230.708 80.9541 230.395 81.3994 230.192 81.9505C229.989 82.5015 229.888 83.096 229.888 83.734C229.888 84.372 229.989 84.9645 230.192 85.5114C230.395 86.0582 230.708 86.4995 231.131 86.835C231.553 87.1706 232.092 87.3384 232.747 87.3384ZM246.072 81.0494L244.754 81.4222C244.672 81.2027 244.549 80.9893 244.388 80.7821C244.23 80.5708 244.015 80.3968 243.742 80.2601C243.468 80.1234 243.118 80.055 242.691 80.055C242.107 80.055 241.62 80.1897 241.231 80.459C240.846 80.7241 240.653 81.0618 240.653 81.4719C240.653 81.8365 240.785 82.1245 241.051 82.3358C241.316 82.5471 241.73 82.7231 242.294 82.864L243.71 83.212C244.564 83.4192 245.2 83.7361 245.618 84.1628C246.037 84.5854 246.246 85.1302 246.246 85.7972C246.246 86.3441 246.089 86.833 245.774 87.2638C245.463 87.6947 245.028 88.0344 244.469 88.283C243.909 88.5316 243.259 88.6559 242.517 88.6559C241.544 88.6559 240.738 88.4446 240.1 88.022C239.462 87.5994 239.058 86.9821 238.888 86.1701L240.28 85.8221C240.413 86.3358 240.663 86.7211 241.032 86.978C241.405 87.2348 241.892 87.3633 242.492 87.3633C243.176 87.3633 243.719 87.2183 244.121 86.9283C244.527 86.6341 244.73 86.282 244.73 85.8718C244.73 85.5404 244.614 85.2628 244.382 85.0391C244.15 84.8112 243.793 84.6413 243.313 84.5295L241.722 84.1566C240.848 83.9495 240.205 83.6284 239.795 83.1934C239.389 82.7542 239.186 82.2053 239.186 81.5465C239.186 81.0079 239.338 80.5315 239.64 80.1172C239.947 79.7029 240.363 79.3777 240.889 79.1415C241.419 78.9054 242.02 78.7873 242.691 78.7873C243.636 78.7873 244.377 78.9944 244.916 79.4087C245.459 79.823 245.844 80.3699 246.072 81.0494ZM252.605 78.9116V80.1545H247.658V78.9116H252.605ZM249.1 76.6246H250.567V85.7227C250.567 86.137 250.627 86.4477 250.747 86.6548C250.871 86.8578 251.029 86.9946 251.219 87.065C251.414 87.1313 251.619 87.1644 251.834 87.1644C251.996 87.1644 252.128 87.1561 252.232 87.1396C252.336 87.1188 252.419 87.1023 252.481 87.0898L252.779 88.4073C252.68 88.4446 252.541 88.4819 252.363 88.5192C252.184 88.5606 251.959 88.5813 251.685 88.5813C251.271 88.5813 250.865 88.4922 250.467 88.3141C250.074 88.1359 249.746 87.8646 249.485 87.5C249.228 87.1354 249.1 86.6755 249.1 86.1204V76.6246ZM251.623 77.7308V74.5117H253.127L252.692 77.7308H251.623Z" fill="#E3E3E3"/>
<path d="M45.4003 53.9L20.7003 29.1999C18.0003 26.4999 18.0003 22.1 20.7003 19.4C23.4003 16.7 27.8003 16.7 30.5003 19.4L65.0003 53.9C59.5003 59.3 50.8003 59.3 45.4003 53.9Z" fill="#3861FA"/>
<path d="M46.4 29.1998L32.8 15.5998C29.4 12.1998 29.4 6.5998 32.8 3.1998L34.3 1.6998C36.5 -0.500195 40 -0.500195 42.2 1.6998L60.3 19.7999C62.5 21.9999 62.5 25.4998 60.3 27.6998L58.8 29.1998C55.4 32.5998 49.8 32.5998 46.4 29.1998Z" fill="#3861FA"/>
<path d="M20.7002 59.3996L2.6002 41.2996C0.400195 39.0996 0.400195 35.5996 2.6002 33.3996L4.1002 31.8996C7.5002 28.4996 13.1002 28.4996 16.5002 31.8996L30.1002 45.4996C33.5002 48.8996 33.5002 54.4996 30.1002 57.8996L28.6002 59.3996C26.4002 61.4996 22.9002 61.4996 20.7002 59.3996Z" fill="#3861FA"/>
<path d="M89 4.2002H80.5V54.1002H112.5V45.7002H89V4.2002Z" fill="#E3E3E3"/>
<path d="M126.9 4.2002H118.5V54.1002H126.9V4.2002Z" fill="#E3E3E3"/>
<path d="M159.4 45.6997C157 45.6997 154.8 45.2998 152.8 44.4998C150.8 43.6998 149 42.4997 147.6 41.0997C146.1 39.5997 145 37.8998 144.2 35.8998C143.4 33.8998 143 31.5998 143 29.2998C143 26.8998 143.4 24.6997 144.2 22.6997C145 20.6997 146.2 18.8998 147.6 17.4998C149.1 15.9998 150.8 14.8997 152.8 14.0997C154.8 13.2997 157 12.8998 159.4 12.8998C161.8 12.8998 164 13.2997 166 14.0997C168 14.8997 169.8 16.0998 171.2 17.4998C172.7 18.9998 173.8 20.6997 174.6 22.6997C175.4 24.6997 175.8 26.8998 175.8 29.2998C175.8 31.6998 175.4 33.8998 174.6 35.8998C174.3 36.6998 173.9 37.4998 173.4 38.2998L164.5 29.3998L158.6 35.2998L167.3 43.9998C166.9 44.1998 166.4 44.3997 165.9 44.5997C164 45.2997 161.7 45.6997 159.4 45.6997ZM182.4 39.0997C183.7 36.0997 184.3 32.6997 184.3 29.1997C184.3 25.6997 183.7 22.2998 182.4 19.2998C181.1 16.2998 179.4 13.5998 177.2 11.3998C175 9.19978 172.3 7.39971 169.3 6.19971C166.2 4.89971 162.9 4.2998 159.4 4.2998C155.9 4.2998 152.5 4.89971 149.5 6.19971C146.5 7.49971 143.8 9.19978 141.6 11.3998C139.4 13.5998 137.6 16.2998 136.4 19.2998C135.1 22.2998 134.5 25.6997 134.5 29.1997C134.5 32.6997 135.1 36.0997 136.4 39.0997C137.7 42.0997 139.4 44.7998 141.6 46.9998C143.8 49.1998 146.5 50.9997 149.5 52.1997C152.5 53.4997 155.9 54.0997 159.4 54.0997C162.9 54.0997 166.3 53.4997 169.3 52.1997C170.8 51.5997 172.2 50.7998 173.5 49.9998L183.4 59.8998L189.3 53.9998L179.5 44.1997C180.7 42.6997 181.7 40.8997 182.4 39.0997Z" fill="#E3E3E3"/>
<path d="M203.1 4.2002H194.7V54.1002H203.1V4.2002Z" fill="#E3E3E3"/>
<path d="M230.3 45.7002H221.1V12.7002H230.3C232.7 12.7002 234.9 13.1003 236.8 13.9003C238.8 14.7003 240.5 15.9003 241.9 17.3003C243.3 18.8003 244.5 20.5002 245.3 22.5002C246.1 24.5002 246.5 26.7002 246.5 29.1002C246.5 31.5002 246.1 33.7002 245.3 35.7002C244.5 37.7002 243.4 39.5003 241.9 40.9003C240.5 42.4003 238.7 43.5003 236.8 44.3003C234.9 45.3003 232.7 45.7002 230.3 45.7002ZM253.1 19.2002C251.9 16.2002 250.1 13.5003 247.9 11.3003C245.7 9.10029 243.1 7.30022 240.1 6.10022C237.1 4.80022 233.8 4.2002 230.3 4.2002H212.6V54.1002H230.3C233.8 54.1002 237.1 53.5002 240.1 52.2002C243.1 50.9002 245.7 49.2002 247.9 47.0002C250.1 44.8002 251.8 42.1002 253.1 39.1002C254.3 36.1002 255 32.7002 255 29.1002C255 25.6002 254.4 22.2002 253.1 19.2002Z" fill="#E3E3E3"/>
</svg>
