<svg width="255" height="62" viewBox="0 0 255 62" fill="none" xmlns="http://www.w3.org/2000/svg">
<path d="M45.3998 54.1998L20.6998 29.4998C17.9998 26.7998 17.9998 22.3998 20.6998 19.6998C23.3998 16.9998 27.7998 16.9998 30.4998 19.6998L64.9998 54.1998C59.4998 59.5998 50.7998 59.5998 45.3998 54.1998Z" fill="#3861FA"/>
<path d="M46.4 29.5001L32.8 15.9001C29.4 12.5001 29.4 6.9001 32.8 3.5001L34.3 2.0001C36.5 -0.199902 40 -0.199902 42.2 2.0001L60.3 20.1001C62.5 22.3001 62.5 25.8001 60.3 28.0001L58.8 29.5001C55.4 32.9001 49.8 32.9001 46.4 29.5001Z" fill="#3861FA"/>
<path d="M20.7002 59.6999L2.6002 41.5999C0.400195 39.3999 0.400195 35.8999 2.6002 33.6999L4.1002 32.1999C7.5002 28.7999 13.1002 28.7999 16.5002 32.1999L30.1002 45.7999C33.5002 49.1999 33.5002 54.7999 30.1002 58.1999L28.6002 59.6999C26.4002 61.7999 22.9002 61.7999 20.7002 59.6999Z" fill="#3861FA"/>
<path d="M89 4.5H80.5V54.4H112.5V46H89V4.5Z" fill="#17173D"/>
<path d="M126.9 4.5H118.5V54.4H126.9V4.5Z" fill="#17173D"/>
<path d="M159.4 46.0001C157 46.0001 154.8 45.6001 152.8 44.8001C150.8 44.0001 149 42.8001 147.6 41.4001C146.1 39.9001 145 38.2001 144.2 36.2001C143.4 34.2001 143 31.9001 143 29.6001C143 27.2001 143.4 25.0001 144.2 23.0001C145 21.0001 146.2 19.2001 147.6 17.8001C149.1 16.3001 150.8 15.2001 152.8 14.4001C154.8 13.6001 157 13.2001 159.4 13.2001C161.8 13.2001 164 13.6001 166 14.4001C168 15.2001 169.8 16.4001 171.2 17.8001C172.7 19.3001 173.8 21.0001 174.6 23.0001C175.4 25.0001 175.8 27.2001 175.8 29.6001C175.8 32.0001 175.4 34.2001 174.6 36.2001C174.3 37.0001 173.9 37.8001 173.4 38.6001L164.5 29.7001L158.6 35.6001L167.3 44.3001C166.9 44.5001 166.4 44.7001 165.9 44.9001C164 45.6001 161.7 46.0001 159.4 46.0001ZM182.4 39.4001C183.7 36.4001 184.3 33.0001 184.3 29.5001C184.3 26.0001 183.7 22.6001 182.4 19.6001C181.1 16.6001 179.4 13.9001 177.2 11.7001C175 9.5001 172.3 7.7001 169.3 6.5001C166.2 5.2001 162.9 4.6001 159.4 4.6001C155.9 4.6001 152.5 5.2001 149.5 6.5001C146.5 7.8001 143.8 9.5001 141.6 11.7001C139.4 13.9001 137.6 16.6001 136.4 19.6001C135.1 22.6001 134.5 26.0001 134.5 29.5001C134.5 33.0001 135.1 36.4001 136.4 39.4001C137.7 42.4001 139.4 45.1001 141.6 47.3001C143.8 49.5001 146.5 51.3001 149.5 52.5001C152.5 53.8001 155.9 54.4001 159.4 54.4001C162.9 54.4001 166.3 53.8001 169.3 52.5001C170.8 51.9001 172.2 51.1001 173.5 50.3001L183.4 60.2001L189.3 54.3001L179.5 44.5001C180.7 42.9001 181.7 41.2001 182.4 39.4001Z" fill="#17173D"/>
<path d="M203.1 4.5H194.7V54.4H203.1V4.5Z" fill="#17173D"/>
<path d="M230.3 46H221.1V13H230.3C232.7 13 234.9 13.4 236.8 14.2C238.8 15 240.5 16.2 241.9 17.6C243.3 19.1 244.5 20.8 245.3 22.8C246.1 24.8 246.5 27 246.5 29.4C246.5 31.8 246.1 34 245.3 36C244.5 38 243.4 39.8 241.9 41.2C240.5 42.7 238.7 43.8 236.8 44.6C234.9 45.6 232.7 46 230.3 46ZM253.1 19.5C251.9 16.5 250.1 13.8 247.9 11.6C245.7 9.4 243.1 7.6 240.1 6.4C237.1 5.1 233.8 4.5 230.3 4.5H212.6V54.4H230.3C233.8 54.4 237.1 53.8 240.1 52.5C243.1 51.2 245.7 49.5 247.9 47.3C250.1 45.1 251.8 42.4 253.1 39.4C254.3 36.4 255 33 255 29.4C255 25.9 254.4 22.5 253.1 19.5Z" fill="#17173D"/>
</svg>
